<svg width="133" height="33" viewBox="0 0 133 33" fill="none" xmlns="http://www.w3.org/2000/svg">
<g clip-path="url(#clip0_108_45)">
<path d="M40.5729 22.4614H49.9236V19.6516H43.8963V9.06819H40.5729V22.4614Z" fill="#340E0E"/>
<path d="M55.4635 20.5882C54.1304 20.5882 53.4356 19.4268 53.4356 17.6848C53.4356 15.9427 54.1304 14.7626 55.4635 14.7626C56.7966 14.7626 57.5101 15.9427 57.5101 17.6848C57.5101 19.4268 56.7966 20.5882 55.4635 20.5882ZM55.4823 22.7611C58.5804 22.7611 60.6083 20.5695 60.6083 17.6848C60.6083 14.8001 58.5804 12.6085 55.4823 12.6085C52.4029 12.6085 50.3375 14.8001 50.3375 17.6848C50.3375 20.5695 52.4029 22.7611 55.4823 22.7611Z" fill="#340E0E"/>
<path d="M65.9709 25.7769C67.3979 25.7769 68.6559 25.4584 69.5009 24.7092C70.2707 24.0161 70.7777 22.9671 70.7777 21.5248V12.8707H67.8485V13.901H67.811C67.2477 13.0955 66.384 12.5898 65.1072 12.5898C62.7226 12.5898 61.0702 14.5753 61.0702 17.3851C61.0702 20.3259 63.0793 21.9369 65.2386 21.9369C66.4028 21.9369 67.135 21.4686 67.6983 20.8317H67.7734V21.787C67.7734 22.9484 67.2289 23.6227 65.9333 23.6227C64.9194 23.6227 64.4124 23.1919 64.2435 22.6861H61.2768C61.5772 24.6904 63.3234 25.7769 65.9709 25.7769ZM65.9521 19.6703C64.8068 19.6703 64.0557 18.7338 64.0557 17.2914C64.0557 15.8303 64.8068 14.8938 65.9521 14.8938C67.2289 14.8938 67.9049 15.9802 67.9049 17.2727C67.9049 18.6214 67.2852 19.6703 65.9521 19.6703Z" fill="#340E0E"/>
<path d="M76.8005 20.5882C75.4673 20.5882 74.7726 19.4268 74.7726 17.6848C74.7726 15.9427 75.4673 14.7626 76.8005 14.7626C78.1336 14.7626 78.8471 15.9427 78.8471 17.6848C78.8471 19.4268 78.1336 20.5882 76.8005 20.5882ZM76.8192 22.7611C79.9174 22.7611 81.9452 20.5695 81.9452 17.6848C81.9452 14.8001 79.9174 12.6085 76.8192 12.6085C73.7399 12.6085 71.6745 14.8001 71.6745 17.6848C71.6745 20.5695 73.7399 22.7611 76.8192 22.7611Z" fill="#340E0E"/>
<path d="M82.8387 22.4614H85.8992V12.8707H82.8387V22.4614ZM82.8387 11.5408H85.8992V9.06819H82.8387V11.5408Z" fill="#340E0E"/>
<path d="M87.2277 25.627H90.2882V21.4686H90.3258C90.9266 22.274 91.8091 22.7611 93.0484 22.7611C95.5644 22.7611 97.2355 20.7755 97.2355 17.666C97.2355 14.7814 95.6771 12.5898 93.1235 12.5898C91.8091 12.5898 90.8703 13.1704 90.2131 14.0321H90.1568V12.8707H87.2277V25.627ZM92.2598 20.4009C90.9454 20.4009 90.1943 19.3332 90.1943 17.7784C90.1943 16.2237 90.8703 15.0436 92.2034 15.0436C93.5178 15.0436 94.1374 16.13 94.1374 17.7784C94.1374 19.4081 93.4239 20.4009 92.2598 20.4009Z" fill="#340E0E"/>
<path d="M102.218 22.7611C104.734 22.7611 106.593 21.6746 106.593 19.5767C106.593 17.1228 104.603 16.692 102.913 16.411C101.693 16.1862 100.604 16.0926 100.604 15.4182C100.604 14.8188 101.186 14.5379 101.937 14.5379C102.782 14.5379 103.364 14.8001 103.476 15.6618H106.293C106.143 13.7699 104.678 12.5898 101.955 12.5898C99.6835 12.5898 97.8059 13.6387 97.8059 15.6618C97.8059 17.9096 99.5896 18.3591 101.261 18.6401C102.538 18.8649 103.702 18.9585 103.702 19.8202C103.702 20.4383 103.12 20.7755 102.2 20.7755C101.186 20.7755 100.547 20.3072 100.435 19.3519H97.543C97.6369 21.4686 99.4019 22.7611 102.218 22.7611Z" fill="#340E0E"/>
<path d="M110.751 22.7423C112.084 22.7423 112.929 22.2178 113.623 21.2813H113.68V22.4614H116.609V12.8707H113.548V18.228C113.548 19.3706 112.91 20.1574 111.858 20.1574C110.882 20.1574 110.413 19.5767 110.413 18.5277V12.8707H107.371V19.1646C107.371 21.3 108.535 22.7423 110.751 22.7423Z" fill="#340E0E"/>
<path d="M117.94 22.4614H121V17.0854C121 15.9427 121.564 15.1373 122.521 15.1373C123.441 15.1373 123.873 15.7367 123.873 16.7669V22.4614H126.934V17.0854C126.934 15.9427 127.478 15.1373 128.455 15.1373C129.375 15.1373 129.806 15.7367 129.806 16.7669V22.4614H132.867V16.2237C132.867 14.0696 131.778 12.5898 129.6 12.5898C128.361 12.5898 127.328 13.1142 126.577 14.2756H126.539C126.051 13.2454 125.094 12.5898 123.836 12.5898C122.446 12.5898 121.526 13.2454 120.925 14.2381H120.869V12.8707H117.94V22.4614Z" fill="#340E0E"/>
<path fill-rule="evenodd" clip-rule="evenodd" d="M16.1823 31.8272C24.8239 31.8272 31.8293 24.8385 31.8293 16.2175C31.8293 7.59646 24.8239 0.607727 16.1823 0.607727C7.5406 0.607727 0.535187 7.59646 0.535187 16.2175C0.535187 24.8385 7.5406 31.8272 16.1823 31.8272ZM21.0636 7.87941C21.3012 7.03742 20.4821 6.53953 19.7341 7.07118L9.29216 14.4923C8.48093 15.0688 8.60854 16.2175 9.48383 16.2175H12.2335V16.1962H17.5925L13.2259 17.7332L11.3009 24.5556C11.0633 25.3976 11.8823 25.8954 12.6304 25.3638L23.0724 17.9427C23.8836 17.3662 23.7559 16.2175 22.8807 16.2175H18.7109L21.0636 7.87941Z" fill="#F5841F"/>
</g>
<defs>
<clipPath id="clip0_108_45">
<rect width="133" height="32" fill="white" transform="translate(0 0.5)"/>
</clipPath>
</defs>
</svg>
